<svg width="94" height="80" viewBox="0 0 94 80" fill="none" xmlns="http://www.w3.org/2000/svg">
<path d="M39.4906 48.9168L28.6837 59.3006C24.1349 63.6694 16.9941 63.7728 12.3264 59.5527C12.3052 59.5315 12.2797 59.5116 12.2599 59.4904L4.24038 52.124C-1.0838 47.2311 -1.44317 38.9397 3.44522 33.6033C8.33219 28.2726 16.6135 27.9128 21.9433 32.8072L39.492 48.9168H39.4906Z" fill="#4242D3"/>
<path d="M89.9732 36.7383L48.7565 76.3451C46.2253 78.776 42.9598 80 39.69 80C36.4203 80 33.35 78.854 30.8442 76.5506L12.325 59.5513C16.9912 63.7714 24.1335 63.6694 28.6823 59.2991L39.4891 48.9154L71.8459 17.828C77.0625 12.816 85.348 12.986 90.3538 18.209C95.3597 23.4321 95.1899 31.7277 89.9732 36.7397V36.7383Z" fill="#029CBF"/>
<path style="mix-blend-mode:multiply" opacity="0.5" d="M25.3701 57.5751C22.0437 60.7696 17.335 61.6734 13.2177 60.2837C17.8656 63.7416 24.4151 63.3988 28.6823 59.2991L39.4891 48.9154L36.8773 46.5171L36.1769 47.19L25.3701 57.5737V57.5751Z" fill="url(#paint0_linear_8_95)"/>
<path d="M39.4905 29.3577C47.5875 29.3577 54.1515 22.7858 54.1515 14.6789C54.1515 6.57196 47.5875 0 39.4905 0C31.3935 0 24.8296 6.57196 24.8296 14.6789C24.8296 22.7858 31.3935 29.3577 39.4905 29.3577Z" fill="#4242D3"/>
<defs>
<linearGradient id="paint0_linear_8_95" x1="45.1713" y1="37.9254" x2="18.8101" y2="61.671" gradientUnits="userSpaceOnUse">
<stop stop-color="white"/>
<stop offset="1"/>
</linearGradient>
</defs>
</svg>
